<svg role="img" xmlns="http://www.w3.org/2000/svg" width="106.4" height="378" viewBox="0 0 106.4 378" font-family="sans-serif" font-size="14">
  <defs><marker id="st-arrow" viewBox="0 0 10 10" refX="9" refY="5" markerWidth="7" markerHeight="7" orient="auto-start-reverse"><path d="M0,0 L10,5 L0,10 z" fill="#333333"/></marker></defs>
  <rect width="100%" height="100%" fill="#ffffff"/>
  <g transform="translate(16,16)">
    <path d="M37.2,18 L37.2,73" fill="none" stroke="#333333" marker-end="url(#st-arrow)"/>
    <path d="M37.2,103 L37.2,158" fill="none" stroke="#333333" marker-end="url(#st-arrow)"/>
    <text x="37.2" y="158" fill="#333333" text-anchor="middle" dy="-2">start</text>
    <path d="M37.2,103 L37.2,158" fill="none" stroke="#333333" marker-end="url(#st-arrow)"/>
    <text x="37.2" y="158" fill="#333333" text-anchor="middle" dy="-2">stop</text>
    <path d="M37.2,188 L37.2,243" fill="none" stroke="#333333" marker-end="url(#st-arrow)"/>
    <path d="M37.2,273 L37.2,328" fill="none" stroke="#333333" marker-end="url(#st-arrow)"/>
    <circle cx="37.2" cy="9" r="7" fill="#333333"/>
    <rect x="4.2" y="73" width="66" height="30" rx="8" fill="#ECECFF" stroke="#9370DB"/>
    <text x="37.2" y="92.9" fill="#333333" text-anchor="middle">Still</text>
    <rect x="0" y="158" width="74.4" height="30" rx="8" fill="#ECECFF" stroke="#9370DB"/>
    <text x="37.2" y="177.9" fill="#333333" text-anchor="middle">Moving</text>
    <rect x="4.2" y="243" width="66" height="30" rx="8" fill="#ECECFF" stroke="#9370DB"/>
    <text x="37.2" y="262.9" fill="#333333" text-anchor="middle">Crash</text>
    <circle cx="37.2" cy="337" r="8" fill="#ffffff" stroke="#333333"/><circle cx="37.2" cy="337" r="4" fill="#333333"/>
  </g>
</svg>
