<svg role="img" xmlns="http://www.w3.org/2000/svg" width="101.12" height="378" viewBox="0 0 101.12 378" font-family="sans-serif" font-size="14">
  <defs><marker id="st-arrow" viewBox="0 0 10 10" refX="9" refY="5" markerWidth="7" markerHeight="7" orient="auto-start-reverse"><path d="M0,0 L10,5 L0,10 z" fill="#333333"/></marker></defs>
  <rect width="100%" height="100%" fill="#ffffff"/>
  <g transform="translate(16,16)">
    <path d="M34.56,18 L34.56,73" fill="none" stroke="#333333" marker-end="url(#st-arrow)"/>
    <path d="M34.56,103 L34.56,158" fill="none" stroke="#333333" marker-end="url(#st-arrow)"/>
    <text x="34.56" y="158" fill="#333333" text-anchor="middle" dy="-2">start</text>
    <path d="M34.56,103 L34.56,158" fill="none" stroke="#333333" marker-end="url(#st-arrow)"/>
    <text x="34.56" y="158" fill="#333333" text-anchor="middle" dy="-2">stop</text>
    <path d="M34.56,188 L34.56,243" fill="none" stroke="#333333" marker-end="url(#st-arrow)"/>
    <path d="M34.56,273 L34.56,328" fill="none" stroke="#333333" marker-end="url(#st-arrow)"/>
    <circle cx="34.56" cy="9" r="7" fill="#333333"/>
    <rect x="9.56" y="73" width="50" height="30" rx="8" fill="#ECECFF" stroke="#9370DB"/>
    <text x="34.56" y="92.9" fill="#333333" text-anchor="middle">Still</text>
    <rect x="0" y="158" width="69.12" height="30" rx="8" fill="#ECECFF" stroke="#9370DB"/>
    <text x="34.56" y="177.9" fill="#333333" text-anchor="middle">Moving</text>
    <rect x="3.89" y="243" width="61.34" height="30" rx="8" fill="#ECECFF" stroke="#9370DB"/>
    <text x="34.56" y="262.9" fill="#333333" text-anchor="middle">Crash</text>
    <circle cx="34.56" cy="337" r="8" fill="#ffffff" stroke="#333333"/><circle cx="34.56" cy="337" r="4" fill="#333333"/>
  </g>
</svg>
